# xmcd CD database file
#
# Track frame offsets:
#	150
#	18067
#	39496
#	59166
#	85728
#	106463
#	125107
#	146531
#	164989
#	183288
#	212084
#	231691
#	248089
#	278178
#	313362
#
# Disc length: 4624 seconds
#
# Revision: 1
# Processed by: cddbd v1.5.2PL0 Copyright (c) Steve Scherf et al.
# Submitted via: CDex 1.51
#
DISCID=e8120e0f
DTITLE=Stoney LaRue - Live At Billy Bob's Texas
DYEAR=2007
DGENRE=Country
TTITLE0=Down In Flames
TTITLE1=Solid Gone
TTITLE2=Idabel Blues
TTITLE3=One Chord Song
TTITLE4=Love You For Loving Me
TTITLE5=Feet Don't Touch The Ground
TTITLE6=Oklahoma Breakdown
TTITLE7=Let Me Hold You
TTITLE8=Texas Moon
TTITLE9=Goin' Down The Road Feelin' Bad
TTITLE10=Downtown
TTITLE11=Walk Away
TTITLE12=Forever Young
TTITLE13=The Weight
TTITLE14=Long Black Veil
EXTD=YEAR: 2007
EXTT0=
EXTT1=
EXTT2=
EXTT3=
EXTT4=
EXTT5=
EXTT6=
EXTT7=
EXTT8=
EXTT9=
EXTT10=
EXTT11=
EXTT12=
EXTT13=
EXTT14=
PLAYORDER=
